<?xml version="1.0" encoding="UTF-8"?><svg id="Layer_1" xmlns="http://www.w3.org/2000/svg" width="2048" height="512" viewBox="0 0 2048 512"><path d="M1169.96,300.25c-9.59.16-17.71,2.04-28.94,3.69l13.79-33.24,38.38,3.57c11.11,1.03,22.25.43,32.99-2.37,5.84-1.53,10.08-8.24,7.71-13.8-.9-2.11-5.57-4.47-7.85-5.01l-34.2-8.12c-8.12-1.92-17.96-6.91-21.96-14.81-7.24-14.35-2.45-33.09,9.66-43.06,9.83-8.08,21.67-12.2,34.28-13.23,18.46-1.5,36.37-.62,55.17-.75,5.52-.04,10.68-2.21,16.79-2.6-2.83,12.1-6.14,23.1-10,34.16-14.4-2.9-72.51-15.2-73.04,6.31-.09,3.48,3.85,6.59,7.76,7.43l28.28,6.02c12.15,2.58,33.26,12.32,33.78,28.06.69,20.86-13.36,37.9-33.09,43.06-7.12,1.86-14.14,3.74-21.48,3.87l-48.01.82h0Z"/><path d="M1746.39,286.77l-33.05-66.24-11.83,57.21c-.91,4.36,2.43,8.94,6.14,10.17,1.27.51,3.98,1.25,3.65,2.04l-1.94,4.63-43.61-.34c9.05-7.74,13.05-13.1,14.97-22.84l9.12-46.11,5.47-25.42c.66-3.08-4.67-4.26-9.17-7.42-.91-.63.99-4.94,2.32-4.97l35.82-.9c8.53-.09,8.92,4.89,11.45,10.44,8.55,18.78,17.59,36.55,27.6,55.12l11.44-48.62c.83-3.52-1.07-7.39-4.06-8.71l-3.2-1.87c-.84-.5.12-3.48.87-4.48l38.64-.29c-7.2,8.71-11.4,14.56-13.22,23.93l-16.14,82.79c-9.86,1.83-25.5,3.4-31.25-8.09v-.03Z"/><path d="M1492.07,293.38c-1.44,2.65-23.46,5.71-30.13-5.92-12.6-21.98-23.27-44.27-34.79-67.27l-11.32,55c-1.2,5.83.7,11.55,7.27,12.86.46,1.57.88,3.07.95,4.1.09,1.27-3.35,3.22-4.86,3.19l-39.42-.63c6.6-6.88,11.61-10.36,13.5-17.98,3.65-14.76,5.38-29.39,8.47-44.28l6.02-29.05c1.42-6.84-7.8-5.31-7.96-10.65-.09-3.06,2.75-4.96,5.86-5.03l30.19-.82c7.85-.21,10.21,3.91,12.93,9.7,8.55,18.17,17.71,34.93,27.83,53.19,2.61-5.61,3.89-11.19,5.38-17.44l6.84-28.78c1.11-4.65-1.92-8.34-6.62-9.37-1.67-.37-.53-6.22,1.36-6.19l36.89.36-10.03,13.52c-7.79,28.4-12.39,56.54-16.46,85.77-.21,1.52-1.29,4.57-1.92,5.73h.01Z"/><path d="M1321.2,248.69l-6,24.76,40.79,1.48,22.87-9.34-17.87,29.55-85.77.13,7.76-11.61c6.3-24.32,11.87-48.42,16.76-73.14,3.18-16.07-12.78-9.67-4.13-23.76l71.79.29,24.62,2.28-9.05,20.89c-4.78.24-9.57-1.91-14.08-1.94l-39.63-.24-4.45,22.89,46.4.33c-3.78,6.17-7.97,11.98-12.84,17.28l-37.19.18v-.03Z"/><path d="M1833.53,274.6l37.77.37c12.77.12,17.48-9.24,25.99-8.7l-17.09,28.95-86.4-.14c5.93-8.76,10.07-15.68,11.99-24.9l12.82-61.09c3.08-14.72-12.74-6.88-5.83-21.92l64.91-.18,32.8,2.11-9.82,20.72c-18.02-1.63-34.46-2.48-52.44-1.66l-4.97,22.8,46.8.32-12.8,17.52-37.59.43-6.15,25.37h0Z"/><path d="M1574.43,274.45c-3.99,17.16,3.7,15.33,1.41,19.37-.37.65-2.24,1.66-3.18,1.65l-45.52-.61c4.39-5.09,13.84-6.42,15.53-13.56l16.66-70.31-27.93.04c-4.18,0-8.67,3.49-14.63,4.64,2.98-10.4,7.88-19,13.73-28.81l98.3-.26-2.36,30.94c-7.09-5.88-13.14-9.15-21.5-9.04l-15.22.21-15.31,65.72h.01Z"/><path d="M2005.71,289.93c-1.94,4.4-5.73,7.37-10.64,7.39-31.99.17-62.9-.45-95.64-2.24,7.01-8.47,11.15-15.6,12.96-25.29l11.81-63.29c2.35-12.6-13.79-5.84-6.27-18.19l40.41.16-17.23,86.11h54.02c6.27,0,12.07-2.54,18.69-3.1l-8.11,18.44h0Z"/><path d="M1659.79,294.54l-40.78-.82,7.7-13.18c5.63-25.15,10.02-49.83,14.02-75.58.42-2.75-1.23-7.41-3.33-8.74-1.33-.84-1.94-6.79-.33-6.81l42.04-.43c-8.66,11.53-11.64,34.53-13.97,48.58-2.45,14.72-5.17,28.53-8.42,43.25-.91,4.11.4,6.09,3.08,13.72h-.01Z"/><path d="M1225.25,383.33v-26.63h22.82c2.1,0,3.62.41,4.56,1.23.94.82,1.41,2.13,1.41,3.93v3.25c0,1.28-.39,2.3-1.18,3.06-.79.76-1.92,1.24-3.4,1.42,1.53.2,2.71.75,3.54,1.64.83.89,1.25,2.05,1.25,3.48v3.4c0,1.76-.65,3.07-1.94,3.93s-3.26,1.29-5.89,1.29h-21.16ZM1245.48,361.04h-14.13v6.35h14.13c1.07,0,1.82-.14,2.23-.43.41-.29.62-.78.62-1.49v-2.52c0-.69-.21-1.18-.62-1.47-.41-.29-1.16-.44-2.23-.44ZM1245.48,371.77h-14.13v6.78h14.13c1.17,0,1.97-.18,2.38-.53.41-.35.62-.97.62-1.86v-2.01c0-.89-.21-1.51-.62-1.85-.41-.34-1.21-.52-2.38-.52Z"/><path d="M1261.12,383.33l15.06-26.63h5.97l15.26,26.63h-6.95l-3.2-5.82h-16.88l-3.1,5.82h-6.17ZM1273.04,372.7h11.66l-5.74-10.83-5.92,10.83Z"/><path d="M1314.88,361.46v21.87h-6.2v-21.87h-12.22v-4.76h30.68v4.76h-12.27Z"/><path d="M1347.12,361.46v21.87h-6.2v-21.87h-12.22v-4.76h30.68v4.76h-12.27Z"/><path d="M1366.98,383.33v-26.63h27.26v4.53h-21.06v5.94h12.29v4.54h-12.29v6.6h21.31v5.01h-27.51Z"/><path d="M1405.92,383.33v-26.63h22.77c2.12,0,3.65.41,4.6,1.22.95.81,1.42,2.13,1.42,3.94v6.25c0,1.8-.47,3.11-1.42,3.93-.95.82-2.48,1.23-4.6,1.23h-3.48l12.29,10.05h-8.89l-10.73-10.05h-5.87v10.05h-6.1ZM1425.95,361.31h-13.93v7.41h13.93c1.07,0,1.81-.16,2.2-.47.39-.31.59-.86.59-1.65v-3.2c0-.77-.2-1.31-.59-1.62-.4-.31-1.13-.47-2.2-.47Z"/><path d="M1453.81,383.33v-11.92l-13.83-14.71h8.26l9.14,10.23,9.17-10.23h7.28l-13.78,14.56v12.07h-6.25Z"/><path d="M1500.96,383.33v-26.63h5.01l12.54,16.1,12.27-16.1h4.96v26.63h-5.74v-16.45c0-.32.02-.72.06-1.21s.1-1.03.16-1.64c-.34.69-.63,1.26-.88,1.7-.25.45-.48.81-.68,1.1l-10,13.3h-1.23l-10.03-13.35c-.37-.5-.68-.98-.95-1.42-.26-.44-.47-.88-.64-1.3.05.55.09,1.06.11,1.51.02.45.04.89.04,1.31v16.45h-5.01Z"/><path d="M1543.68,383.33l15.06-26.63h5.97l15.26,26.63h-6.95l-3.2-5.82h-16.88l-3.1,5.82h-6.17ZM1555.6,372.7h11.66l-5.74-10.83-5.92,10.83Z"/><path d="M1588.5,383.33v-26.63h4.23l18.74,15.69c.64.52,1.2,1.01,1.69,1.47s.93.94,1.33,1.42c-.1-1.49-.17-2.55-.2-3.17-.03-.62-.05-1.1-.05-1.44v-13.98h5.57v26.63h-4.23l-19.55-16.45c-.47-.42-.88-.8-1.23-1.13s-.68-.68-.98-1.03c.08.82.15,1.6.19,2.33s.06,1.36.06,1.9v14.38h-5.57Z"/><path d="M1628.3,383.33l15.06-26.63h5.97l15.26,26.63h-6.95l-3.2-5.82h-16.88l-3.1,5.82h-6.17ZM1640.21,372.7h11.66l-5.74-10.83-5.92,10.83Z"/><path d="M1697.25,361.46h-19.35v16.85h19.35v-5.92h-10.13v-4.53h16.15v9.17c0,2.44-.45,4.09-1.36,4.98-.91.88-2.65,1.32-5.24,1.32h-18.36c-2.59,0-4.33-.44-5.24-1.32s-1.36-2.54-1.36-4.98v-14.03c0-2.42.45-4.07,1.36-4.96.91-.89,2.65-1.33,5.24-1.33h18.36c2.55,0,4.29.44,5.21,1.31.92.87,1.39,2.45,1.39,4.74v.6l-6.02,1.08v-2.97Z"/><path d="M1716.37,383.33v-26.63h27.26v4.53h-21.06v5.94h12.29v4.54h-12.29v6.6h21.31v5.01h-27.51Z"/><path d="M1755.26,383.33v-26.63h5.01l12.54,16.1,12.27-16.1h4.96v26.63h-5.74v-16.45c0-.32.02-.72.06-1.21s.1-1.03.16-1.64c-.34.69-.63,1.26-.88,1.7-.25.45-.48.81-.68,1.1l-10,13.3h-1.23l-10.03-13.35c-.37-.5-.68-.98-.95-1.42-.26-.44-.47-.88-.64-1.3.05.55.09,1.06.11,1.51.02.45.04.89.04,1.31v16.45h-5.01Z"/><path d="M1803.07,383.33v-26.63h27.26v4.53h-21.06v5.94h12.29v4.54h-12.29v6.6h21.31v5.01h-27.51Z"/><path d="M1841.96,383.33v-26.63h4.23l18.74,15.69c.64.52,1.2,1.01,1.69,1.47s.93.94,1.33,1.42c-.1-1.49-.17-2.55-.2-3.17-.03-.62-.05-1.1-.05-1.44v-13.98h5.57v26.63h-4.23l-19.55-16.45c-.47-.42-.88-.8-1.23-1.13s-.68-.68-.98-1.03c.08.82.15,1.6.19,2.33s.06,1.36.06,1.9v14.38h-5.57Z"/><path d="M1899.25,361.46v21.87h-6.2v-21.87h-12.22v-4.76h30.68v4.76h-12.27Z"/><path d="M1995.98,369.7l-50.24,4.94c-3.8.37-6.19-1.43-6.2-4.97s2.24-4.68,6.23-4.64l50.21,4.68h0Z"/><path d="M1187.67,374.53l-49.35-5.2c8.09-.86,52.72-6.85,54.54-2.71.52,1.17.8,3.64.67,4.91-.15,1.52-4.22,3.17-5.87,2.99Z"/><path d="M917.16,290.97c23.43-8.24,46.04-13.33,71.3-19.66-44.18-13.17-86.44-28.99-127.03-51.03-27.96-15.18-54.07-30.48-80.98-47.26-23.56-14.7-46.12-28.8-71.22-40.75-46.35-22.07-94.62-33-146.06-31.81-37.93.87-73.19,10.26-106.75,28.29-32.24,17.32-61.89,38.08-88.93,62.71-15.05,13.7-31.09,25.22-52.85,24.71l-134.18-3.17c-5.69,9.33-14.5,16.17-25.1,14.87-13.09-1.6-21.27-13.75-18.93-24.73,2.8-13.11,15.43-21.73,28.37-16.84,6.12,2.31,11.44,8.11,15.88,13.25l51.83,1.01c27.08.53,53.41,1.43,80.77.42,15.88-.59,29.89-10.72,41.28-20.67,16.04-14.02,30.35-27.07,48.56-38.45,69.05-43.16,132.48-59.78,214.68-50.43,51.09,5.8,97.93,24.42,142.61,49.26,115.62,64.26,188.81,108.77,327.8,128.72-70.51,12.82-135.56,36.33-197,72.45l-76.97,45.26c-34.74,19.55-69.52,36.46-107.31,49.41-91.49,31.33-189.31,27.44-278.62-8.81-82-33.29-42.13-29.49-151.25-29.9-4.44,11.43-13.04,15.51-22.44,14.94-9.81-.61-17.45-9.78-18.12-18.67-.77-10.21,7.1-19.31,15.24-21.23,11.23-2.64,20.24,2.28,24.84,13.29l117.36.43c28.06,17.76,58.14,29.68,90.14,39.86,35.43,11.27,70.66,15.72,108.04,14.21,74.04-2.98,132.68-31.99,190.59-75.61,41.52-31.27,85.26-56.73,134.44-74.04h0ZM167.21,206.73c0-5.19-4.21-9.41-9.41-9.41s-9.41,4.21-9.41,9.41,4.21,9.41,9.41,9.41,9.41-4.21,9.41-9.41ZM256.62,401.04c5.38.18,9.89-3.73,9.86-8.19-.03-3.64-3.89-8.04-7.77-8.62-5.79-.87-10.27,2.42-11.01,7.12s2.77,9.49,8.93,9.7Z"/><path d="M308.19,162.08h-69.15c-4.78,0-11.03,21.27-29.55,15.75-9.58-2.85-16.6-11.38-15.85-21.94.69-9.79,8.21-18.29,18.56-19.54,9.82-1.19,19.52,4.39,23.38,15.59,24.86.1,49.21.91,74.63-.53,18.41-1.04,35.77-9.57,51.49-18.56l76.52-43.81c-22.87,4.46-61.03,25.54-81.2,27.72-13,1.39-25.53,1.17-38.65,1.47-4.63,12.42-16.11,17.2-27.42,13.08-11.27-4.1-16.41-17.32-10.79-28.93,3.83-7.88,12.21-12.53,20.88-11.63,7.84.82,14.33,6.46,17.92,15.61,40.14-.06,43.51,1.01,78.09-15.16,12.92-6.04,25.3-10.13,39.01-14.2,99.9-29.63,195.32-31.38,294.84,1.51,54.95,18.16,104.53,44.89,153.43,75.66,34.46,21.68,68.3,40.95,104.92,58.67,44.5,21.55,90,36.15,138.28,42.24-58.94,6.31-137.36-19.37-189.69-44.98-35.05-17.13-66.57-37.05-100.02-57.1-52.32-31.36-106.38-56.6-165.67-71.47-38.89-9.76-76.95-12.84-116.95-11.84-44.07,1.09-85.19,13.81-122.85,35.61l-32.69,18.91c-31.15,18.03-53.19,37.84-91.46,37.85v.02ZM307.47,111.65c0-5.21-4.21-9.42-9.42-9.42s-9.42,4.21-9.42,9.42,4.21,9.42,9.42,9.42,9.42-4.21,9.42-9.42ZM224.17,157.64c0-5.08-4.12-9.2-9.2-9.2s-9.2,4.12-9.2,9.2,4.12,9.2,9.2,9.2,9.2-4.12,9.2-9.2Z"/><path d="M756.76,291.69l-35.79.93-.38,29.07c-.11,8.61-6.22,13.99-14.92,13.99h-255.74c-7.69,0-13.24-7.1-13.22-14.25l.18-116.68c0-8,5.63-15.11,14.31-15.11h254.44c9.44,0,14.95,5.85,15.03,14.97l.24,27.64,35.77,1.07.06,58.4.02-.03ZM707.57,202.03l-257.98.06.03,120.8,257.98-.06-.03-120.8Z"/><path d="M587.84,412.48l44.66-.3c-83.96,26.41-160.24.61-227.8-52.21-28.27-22.1-54.26-45.58-79.62-70.87-17.42-17.37-38.56-25.8-63.32-25.77l-186.52.22c-4.09,11.99-14.78,17.82-25.66,16.38s-18.88-10.61-18.83-21.59c.05-10.98,8.08-21.83,20.24-22.5,10.45-.58,19.02,5.4,24.52,15.05l203.88-.53c17.8-.05,33.29,3.32,46.94,15.05,12.82,11.03,24.54,23.09,36.99,34.97,11.35,10.82,24.21,19.21,36.11,29.33,16.28,13.85,30.67,28.03,49.05,39.44,42.07,26.12,88.8,43.7,139.37,43.35l-.02-.02ZM63.26,258.02c0-5.64-4.57-10.21-10.21-10.21s-10.21,4.57-10.21,10.21,4.57,10.21,10.21,10.21,10.21-4.57,10.21-10.21Z"/><path d="M379.17,365.56c1.15,6.06-13.01,7.98-21.65,3.03-11.31-6.47-21.06-13.8-30.66-22.32l-29.66-26.36c-5.1-4.52-13.54-9.58-20.82-9.58l-108.62.16c-3.35,10.53-11.33,17.08-20.58,17.36-9.25.27-18.65-6.46-21.25-16.07-3.01-11.15,2.63-22.02,12.45-26.01,10.83-4.41,21.76.95,27.72,12.12l123.01-.1c9.44,0,19.13,8.29,25.32,13.97l26.28,24.13c10.45,9.6,23,17.53,34.73,24.29,1.63.95,3.45,3.89,3.72,5.37v.02ZM155.92,305.78c0-5.24-4.25-9.49-9.49-9.49s-9.49,4.25-9.49,9.49,4.25,9.49,9.49,9.49,9.49-4.25,9.49-9.49Z"/><path d="M330.28,369.13c-13.75,2.95-23.81-10.85-30.34-10.98l-86.2-1.76c-4.65,13.64-16.51,19.46-28.16,14.76-11.65-4.7-17.1-18.12-11.28-28.99,6.22-11.6,21.39-16.27,31.84-6.23,2.44,2.34,5.51,6.87,7.76,9.63l54.45.93,38.14.54,23.8,22.12-.02-.02ZM201.64,351.52c0-5.13-4.15-9.28-9.28-9.28s-9.28,4.15-9.28,9.28,4.15,9.28,9.28,9.28,9.28-4.15,9.28-9.28Z"/><path d="M339.86,174.85c-6.55,13.14-20.74,3.19-41.84,7.84-4.04.9-8.21,2.85-10.42.37-3.04-3.41-2.16-7.66.42-10.64,2.84-3.29,7.63,2.08,10.43,2.12l41.41.32h0Z"/><rect x="464.51" y="218.6" width="63.33" height="88.29"/><rect x="534.64" y="231.41" width="88.27" height="62.68" transform="translate(315.93 841.47) rotate(-89.99)"/><rect x="616.96" y="231.53" width="88.29" height="62.55" transform="translate(397.6 923.63) rotate(-89.94)"/></svg>